:FULLY-SPECIFIED
:FORCE-ALL-JOINTS-BE-3DOF
:DEGREES
102
root -2.8402 16.5127 -36.1883 3.09298 0.180577 -2.27018
lfemur -21.0177 5.90668 -9.17093
ltibia 44.3191 0 0
lfoot -21.6218 0.042856 0
ltoes -8.10645 0 0
rfemur -21.5551 -5.69304 13.7673
rtibia 47.0564 0 0
rfoot -25.519 1.43553 0
rtoes -6.97703 0 0
lowerback 7.65312 1.95271 -1.61702
upperback -3.61162 2.53537 1.22347
thorax -8.24107 1.36361 1.82783
lowerneck -2.53995 -3.8041 -6.53905
upperneck 5.92654 -5.14438 5.92549
head 2.73665 -2.54717 2.93796
lclavicle -1.17576e-15 9.95348e-15 0
lhumerus -26.8995 -4.32405 89.8545
lradius 25.0062 0 0
lwrist -30.2407 0 0
lhand -28.624 30.151 0
lfingers 7.12502 0 0
lthumb -1.98856 60.1214 0
rclavicle -1.17576e-15 9.95348e-15 0
rhumerus -32.4446 3.04406 -80.2778
rradius 30.6892 0 0
rwrist 2.53439 0 0
rhand -19.9618 -27.7091 0
rfingers 7.12502 0 0
rthumb 6.37665 -57.5931 0
103
root -2.83708 16.5117 -36.1841 3.14372 0.173713 -2.28521
lfemur -21.075 5.89525 -9.16626
ltibia 44.3439 0 0
lfoot -21.6416 0.0900995 0
ltoes -8.18685 0 0
rfemur -21.6128 -5.70933 13.7775
rtibia 47.0694 0 0
rfoot -25.5315 1.45786 0
rtoes -6.9791 0 0
lowerback 7.59247 1.95807 -1.64038
upperback -3.63554 2.54064 1.22489
thorax -8.23299 1.36776 1.84288
lowerneck -2.56788 -3.8071 -6.5273
upperneck 5.97746 -5.14924 5.92689
head 2.75893 -2.54896 2.93579
lclavicle -6.62491e-16 1.00313e-14 0
lhumerus -26.8954 -4.28135 89.8415
lradius 25.0014 0 0
lwrist -30.2608 0 0
lhand -28.6063 30.1497 0
lfingers 7.12502 0 0
lthumb -1.97148 60.1203 0
rclavicle -6.62491e-16 1.00313e-14 0
rhumerus -32.4505 2.98465 -80.2662
rradius 30.66 0 0
rwrist 2.56023 0 0
rhand -19.9487 -27.6805 0
rfingers 7.12502 0 0
rthumb 6.38937 -57.564 0
104
root -2.83395 16.5107 -36.1799 3.20564 0.170956 -2.30369
lfemur -21.154 5.88712 -9.16072
ltibia 44.39 0 0
lfoot -21.6737 0.13872 0
ltoes -8.27842 0 0
rfemur -21.6856 -5.73423 13.7891
rtibia 47.0954 0 0
rfoot -25.5535 1.48172 0
rtoes -6.99506 0 0
lowerback 7.51376 1.96238 -1.66558
upperback -3.66539 2.54464 1.22665
thorax -8.22085 1.37148 1.86004
lowerneck -2.59168 -3.80996 -6.51525
upperneck 6.03556 -5.15438 5.92716
head 2.78283 -2.55099 2.93322
lclavicle -3.45522e-16 9.85138e-15 0
lhumerus -26.8914 -4.22413 89.8202
lradius 24.9952 0 0
lwrist -30.2855 0 0
lhand -28.5868 30.1531 0
lfingers 7.12502 0 0
lthumb -1.95261 60.1239 0
rclavicle -3.45522e-16 9.85138e-15 0
rhumerus -32.4588 2.92134 -80.2548
rradius 30.6313 0 0
rwrist 2.58696 0 0
rhand -19.9297 -27.6516 0
rfingers 7.12502 0 0
rthumb 6.40766 -57.5346 0
105
root -2.83083 16.5096 -36.1758 3.28062 0.173126 -2.32601
lfemur -21.2579 5.88317 -9.15438
ltibia 44.4607 0 0
lfoot -21.7201 0.188312 0
ltoes -8.38232 0 0
rfemur -21.7756 -5.76903 13.802
rtibia 47.1365 0 0
rfoot -25.5867 1.50691 0
rtoes -7.02771 0 0
lowerback 7.41343 1.96534 -1.6926
upperback -3.70219 2.54703 1.2288
thorax -8.20367 1.37462 1.87953
lowerneck -2.61032 -3.81262 -6.50284
upperneck 6.10224 -5.15983 5.92594
head 2.80858 -2.55329 2.93014
lclavicle -2.48544e-16 9.38354e-15 0
lhumerus -26.8878 -4.15079 89.7895
lradius 24.9875 0 0
lwrist -30.3152 0 0
lhand -28.5652 30.162 0
lfingers 7.12502 0 0
lthumb -1.93177 60.133 0
rclavicle -2.48544e-16 9.38354e-15 0
rhumerus -32.4697 2.85413 -80.2435
rradius 30.6037 0 0
rwrist 2.6144 0 0
rhand -19.9039 -27.6231 0
rfingers 7.12502 0 0
rthumb 6.43257 -57.5054 0
106
root -2.8277 16.5086 -36.1716 3.37051 0.181047 -2.35253
lfemur -21.3903 5.88428 -9.14733
ltibia 44.5593 0 0
lfoot -21.783 0.238469 0
ltoes -8.49969 0 0
rfemur -21.8851 -5.815 13.8163
rtibia 47.1946 0 0
rfoot -25.6325 1.53325 0
rtoes -7.07983 0 0
lowerback 7.2879 1.96665 -1.72144
upperback -3.74694 2.54747 1.23139
thorax -8.18044 1.37702 1.90154
lowerneck -2.62272 -3.81502 -6.49001
upperneck 6.17888 -5.16558 5.92283
head 2.83645 -2.55589 2.92642
lclavicle -3.9524e-16 8.59744e-15 0
lhumerus -26.885 -4.05976 89.7487
lradius 24.9782 0 0
lwrist -30.3501 0 0
lhand -28.5414 30.177 0
lfingers 7.12502 0 0
lthumb -1.90879 60.1482 0
rclavicle -3.9524e-16 8.59744e-15 0
rhumerus -32.4836 2.78304 -80.2323
rradius 30.5776 0 0
rwrist 2.64235 0 0
rhand -19.8702 -27.5955 0
rfingers 7.12502 0 0
rthumb 6.46513 -57.4768 0
107
root -2.82712 16.5066 -36.1719 3.4597 0.191937 -2.37907
lfemur -21.5255 5.88707 -9.14033
ltibia 44.6632 0 0
lfoot -21.8483 0.284305 0
ltoes -8.61454 0 0
rfemur -21.9944 -5.86309 13.8302
rtibia 47.2558 0 0
rfoot -25.6803 1.55826 0
rtoes -7.13727 0 0
lowerback 7.16168 1.96711 -1.74968
upperback -3.79178 2.54691 1.23399
thorax -8.15683 1.37891 1.92345
lowerneck -2.62969 -3.81717 -6.4785
upperneck 6.25227 -5.17114 5.91951
head 2.86224 -2.5585 2.92295
lclavicle -8.30861e-16 7.58593e-15 0
lhumerus -26.8808 -3.96864 89.706
lradius 24.9703 0 0
lwrist -30.3839 0 0
lhand -28.5185 30.1956 0
lfingers 7.12502 0 0
lthumb -1.88665 60.167 0
rclavicle -8.30861e-16 7.58593e-15 0
rhumerus -32.4982 2.7166 -80.2243
rradius 30.5545 0 0
rwrist 2.66739 0 0
rhand -19.8341 -27.5716 0
rfingers 7.12502 0 0
rthumb 6.49995 -57.4519 0
108
root -2.82654 16.5046 -36.1722 3.53222 0.202443 -2.40147
lfemur -21.6371 5.88776 -9.134
ltibia 44.7488 0 0
lfoot -21.9017 0.32176 0
ltoes -8.71111 0 0
rfemur -22.0834 -5.90387 13.8422
rtibia 47.3058 0 0
rfoot -25.7191 1.57986 0
rtoes -7.18459 0 0
lowerback 7.06042 1.96772 -1.77502
upperback -3.82855 2.5465 1.23616
thorax -8.13891 1.38061 1.94261
lowerneck -2.63301 -3.81914 -6.46992
upperneck 6.30912 -5.176 5.91781
head 2.88191 -2.56082 2.92062
lclavicle -1.55968e-15 6.47178e-15 0
lhumerus -26.873 -3.8947 89.6695
lradius 24.9666 0 0
lwrist -30.4108 0 0
lhand -28.4994 30.2147 0
lfingers 7.12502 0 0
lthumb -1.86826 60.1863 0
rclavicle -1.55968e-15 6.47178e-15 0
rhumerus -32.5114 2.66255 -80.222
rradius 30.5354 0 0
rwrist 2.68664 0 0
rhand -19.802 -27.5534 0
rfingers 7.12502 0 0
rthumb 6.53098 -57.4328 0
109
root -2.82596 16.5025 -36.1725 3.58941 0.212532 -2.42015
lfemur -21.7271 5.88657 -9.12818
ltibia 44.8182 0 0
lfoot -21.9441 0.351666 0
ltoes -8.79091 0 0
rfemur -22.1541 -5.93803 13.8524
rtibia 47.3458 0 0
rfoot -25.7497 1.59843 0
rtoes -7.22259 0 0
lowerback 6.98227 1.96848 -1.79762
upperback -3.85789 2.54625 1.23793
thorax -8.12627 1.38215 1.95918
lowerneck -2.63312 -3.82092 -6.46404
upperneck 6.35073 -5.18019 5.91762
head 2.89597 -2.56286 2.91936
lclavicle -2.54389e-15 5.26956e-15 0
lhumerus -26.8619 -3.83585 89.6384
lradius 24.9665 0 0
lwrist -30.4318 0 0
lhand -28.4839 30.2344 0
lfingers 7.12502 0 0
lthumb -1.85331 60.2061 0
rclavicle -2.54389e-15 5.26956e-15 0
rhumerus -32.5232 2.6197 -80.2249
rradius 30.5199 0 0
rwrist 2.70074 0 0
rhand -19.7737 -27.5401 0
rfingers 7.12502 0 0
rthumb 6.55831 -57.4186 0
